# xmcd
#
# Track frame offsets:
#	150
#	15515
#	28040
#	40117
#	53700
#	66740
#	82032
#	94555
#	107907
#	123677
#	137762
#	152680
#	169005
#	183232
#	196327
#	211687
#	223040
#	235115
#	247795
#	261675
#	273872
#	284297
#	298225
#	310730
#
# Disc length: 4345 seconds
#
# Revision: 0
# Processed by: cddbd v1.4PL0 Copyright (c) Steve Scherf et al.
# Submitted via: audiograbber 1.81.03
#
DISCID=6010f718
DTITLE=Fats Waller - The Very Best of Fats Waller
DYEAR=2000
DGENRE=
TTITLE0=Fats Waller Stomp
TTITLE1=Handful of Keys
TTITLE2=The Minor Drag
TTITLE3=Ain't Misbehavin
TTITLE4=I'm Crazy 'Bout My Baby
TTITLE5=A Porter's Love Song to a Chambermaid
TTITLE6=How Can You Face Me?
TTITLE7=Viper's Drag
TTITLE8=I"m Gonna Sit Right Down and Write Myself a Letter
TTITLE9=Dinah
TTITLE10=Truckin'
TTITLE11=When Somebody Thinks You're Wonderful
TTITLE12=I Got Rhythm
TTITLE13=It's a Sin to Tell a Lie
TTITLE14=Until the Real Thing Comes Along
TTITLE15=The Curse of an Aching Heart
TTITLE16=Honeysuckle Rose
TTITLE17=The Joint Is Jumpin'
TTITLE18=Two Sleepy People
TTITLE19=I'll Dance at Your Wedding
TTITLE20=Hold Tight (Want Some Seafood Mama)
TTITLE21=Your Feet's Too Big
TTITLE22=All That Meat and No Potatoes
TTITLE23=The Jitterbug Waltz
EXTD=
EXTT0=
EXTT1=
EXTT2=
EXTT3=
EXTT4=
EXTT5=
EXTT6=
EXTT7=
EXTT8=
EXTT9=
EXTT10=
EXTT11=
EXTT12=
EXTT13=
EXTT14=
EXTT15=
EXTT16=
EXTT17=
EXTT18=
EXTT19=
EXTT20=
EXTT21=
EXTT22=
EXTT23=
PLAYORDER=
